REM DIRINDEX 1\2\4,1\2\5,1\2\6,1\3\7,1\3\8,1\3\9,1\3\10
REM DIRNAME cjc058,folder01,folder02,folder03,folder04,folder05,folder06,folder07,folder08,folder09
TITLE ""
FILE "b_28.mp3" MP3
  TRACK 01 AUDIO
    TITLE "0:"
    INDEX 01 00:00:00
  TRACK 02 AUDIO
    TITLE "10:cjc058_2913"
    INDEX 01 00:00:09
  TRACK 03 AUDIO
    TITLE "0:"
    INDEX 01 00:04:11
  TRACK 04 AUDIO
    TITLE "7:cjc058_2914"
    INDEX 01 00:04:60
  TRACK 05 AUDIO
    TITLE "0:"
    INDEX 01 00:06:65
  TRACK 06 AUDIO
    TITLE "8:cjc058_2915"
    INDEX 01 00:07:27
  TRACK 07 AUDIO
    TITLE "0:"
    INDEX 01 00:09:18
  TRACK 08 AUDIO
    TITLE "9:cjc058_2916"
    INDEX 01 00:09:65
  TRACK 09 AUDIO
    TITLE "0:"
    INDEX 01 00:13:55
  TRACK 10 AUDIO
    TITLE "7:cjc058_2917"
    INDEX 01 00:14:64
  TRACK 11 AUDIO
    TITLE "0:"
    INDEX 01 00:16:69
  TRACK 12 AUDIO
    TITLE "8:cjc058_2918"
    INDEX 01 00:17:25
  TRACK 13 AUDIO
    TITLE "0:"
    INDEX 01 00:20:43
  TRACK 14 AUDIO
    TITLE "9:cjc058_2919"
    INDEX 01 00:21:13
  TRACK 15 AUDIO
    TITLE "0:"
    INDEX 01 00:24:63
  TRACK 16 AUDIO
    TITLE "7:cjc058_2920"
    INDEX 01 00:25:72
  TRACK 17 AUDIO
    TITLE "0:"
    INDEX 01 00:28:02
  TRACK 18 AUDIO
    TITLE "8:cjc058_2921"
    INDEX 01 00:28:37
  TRACK 19 AUDIO
    TITLE "0:"
    INDEX 01 00:31:20
  TRACK 20 AUDIO
    TITLE "9:cjc058_2922"
    INDEX 01 00:31:65
  TRACK 21 AUDIO
    TITLE "0:"
    INDEX 01 00:35:00
  TRACK 22 AUDIO
    TITLE "7:cjc058_2923"
    INDEX 01 00:36:09
  TRACK 23 AUDIO
    TITLE "0:"
    INDEX 01 00:38:14
  TRACK 24 AUDIO
    TITLE "8:cjc058_2924"
    INDEX 01 00:38:49
  TRACK 25 AUDIO
    TITLE "0:"
    INDEX 01 00:40:52
  TRACK 26 AUDIO
    TITLE "9:cjc058_2925"
    INDEX 01 00:41:22
  TRACK 27 AUDIO
    TITLE "0:"
    INDEX 01 00:45:45
  TRACK 28 AUDIO
    TITLE "7:cjc058_2926"
    INDEX 01 00:46:56
  TRACK 29 AUDIO
    TITLE "0:"
    INDEX 01 00:48:61
  TRACK 30 AUDIO
    TITLE "8:cjc058_2927"
    INDEX 01 00:49:21
  TRACK 31 AUDIO
    TITLE "0:"
    INDEX 01 00:52:30
  TRACK 32 AUDIO
    TITLE "9:cjc058_2928"
    INDEX 01 00:53:04
  TRACK 33 AUDIO
    TITLE "0:"
    INDEX 01 00:57:46
  TRACK 34 AUDIO
    TITLE "7:cjc058_2929"
    INDEX 01 00:58:56
  TRACK 35 AUDIO
    TITLE "0:"
    INDEX 01 01:00:70
  TRACK 36 AUDIO
    TITLE "8:cjc058_2930"
    INDEX 01 01:01:29
  TRACK 37 AUDIO
    TITLE "0:"
    INDEX 01 01:04:52
  TRACK 38 AUDIO
    TITLE "9:cjc058_2931"
    INDEX 01 01:05:22
  TRACK 39 AUDIO
    TITLE "0:"
    INDEX 01 01:08:68
  TRACK 40 AUDIO
    TITLE "7:cjc058_2932"
    INDEX 01 01:10:10
  TRACK 41 AUDIO
    TITLE "0:"
    INDEX 01 01:12:26
  TRACK 42 AUDIO
    TITLE "8:cjc058_2933"
    INDEX 01 01:12:60
  TRACK 43 AUDIO
    TITLE "0:"
    INDEX 01 01:16:14
  TRACK 44 AUDIO
    TITLE "9:cjc058_2934"
    INDEX 01 01:16:61
  TRACK 45 AUDIO
    TITLE "0:"
    INDEX 01 01:21:00
  TRACK 46 AUDIO
    TITLE "7:cjc058_2935"
    INDEX 01 01:22:09
  TRACK 47 AUDIO
    TITLE "0:"
    INDEX 01 01:24:18
  TRACK 48 AUDIO
    TITLE "8:cjc058_2936"
    INDEX 01 01:24:55
  TRACK 49 AUDIO
    TITLE "0:"
    INDEX 01 01:29:03
  TRACK 50 AUDIO
    TITLE "9:cjc058_2937"
    INDEX 01 01:29:48
  TRACK 51 AUDIO
    TITLE "0:"
    INDEX 01 01:34:40
  TRACK 52 AUDIO
    TITLE "7:cjc058_2938"
    INDEX 01 01:35:51
  TRACK 53 AUDIO
    TITLE "0:"
    INDEX 01 01:37:62
  TRACK 54 AUDIO
    TITLE "8:cjc058_2939"
    INDEX 01 01:38:24
  TRACK 55 AUDIO
    TITLE "0:"
    INDEX 01 01:41:34
  TRACK 56 AUDIO
    TITLE "9:cjc058_2940"
    INDEX 01 01:42:02
  TRACK 57 AUDIO
    TITLE "0:"
    INDEX 01 01:45:65
  TRACK 58 AUDIO
    TITLE "7:cjc058_2941"
    INDEX 01 01:46:74
  TRACK 59 AUDIO
    TITLE "0:"
    INDEX 01 01:49:06
  TRACK 60 AUDIO
    TITLE "8:cjc058_2942"
    INDEX 01 01:49:41
  TRACK 61 AUDIO
    TITLE "0:"
    INDEX 01 01:52:34
  TRACK 62 AUDIO
    TITLE "9:cjc058_2943"
    INDEX 01 01:53:06
  TRACK 63 AUDIO
    TITLE "0:"
    INDEX 01 01:58:50
  TRACK 64 AUDIO
    TITLE "7:cjc058_2944"
    INDEX 01 01:59:59
  TRACK 65 AUDIO
    TITLE "0:"
    INDEX 01 02:02:01
  TRACK 66 AUDIO
    TITLE "8:cjc058_2945"
    INDEX 01 02:02:38
  TRACK 67 AUDIO
    TITLE "0:"
    INDEX 01 02:04:41
  TRACK 68 AUDIO
    TITLE "9:cjc058_2946"
    INDEX 01 02:05:15
  TRACK 69 AUDIO
    TITLE "0:"
    INDEX 01 02:08:74
  TRACK 70 AUDIO
    TITLE "7:cjc058_2947"
    INDEX 01 02:10:08
  TRACK 71 AUDIO
    TITLE "0:"
    INDEX 01 02:12:25
  TRACK 72 AUDIO
    TITLE "8:cjc058_2948"
    INDEX 01 02:12:62
  TRACK 73 AUDIO
    TITLE "0:"
    INDEX 01 02:15:66
  TRACK 74 AUDIO
    TITLE "9:cjc058_2949"
    INDEX 01 02:16:34
  TRACK 75 AUDIO
    TITLE "0:"
    INDEX 01 02:21:00
  TRACK 76 AUDIO
    TITLE "7:cjc058_2950"
    INDEX 01 02:22:07
  TRACK 77 AUDIO
    TITLE "0:"
    INDEX 01 02:24:16
  TRACK 78 AUDIO
    TITLE "8:cjc058_2951"
    INDEX 01 02:24:51
  TRACK 79 AUDIO
    TITLE "0:"
    INDEX 01 02:26:39
  TRACK 80 AUDIO
    TITLE "9:cjc058_2952"
    INDEX 01 02:27:09
  TRACK 81 AUDIO
    TITLE "0:"
    INDEX 01 02:30:56
  TRACK 82 AUDIO
    TITLE "7:cjc058_2953"
    INDEX 01 02:31:65
  TRACK 83 AUDIO
    TITLE "0:"
    INDEX 01 02:33:64
  TRACK 84 AUDIO
    TITLE "8:cjc058_2954"
    INDEX 01 02:34:24
  TRACK 85 AUDIO
    TITLE "0:"
    INDEX 01 02:36:21
  TRACK 86 AUDIO
    TITLE "9:cjc058_2955"
    INDEX 01 02:36:68
  TRACK 87 AUDIO
    TITLE "0:"
    INDEX 01 02:40:07
  TRACK 88 AUDIO
    TITLE "7:cjc058_2956"
    INDEX 01 02:41:13
  TRACK 89 AUDIO
    TITLE "0:"
    INDEX 01 02:43:14
  TRACK 90 AUDIO
    TITLE "8:cjc058_2957"
    INDEX 01 02:43:47
  TRACK 91 AUDIO
    TITLE "0:"
    INDEX 01 02:46:37
  TRACK 92 AUDIO
    TITLE "9:cjc058_2958"
    INDEX 01 02:47:09
  TRACK 93 AUDIO
    TITLE "0:"
    INDEX 01 02:49:73
  TRACK 94 AUDIO
    TITLE "7:cjc058_2959"
    INDEX 01 02:51:07
  TRACK 95 AUDIO
    TITLE "0:"
    INDEX 01 02:53:30
  TRACK 96 AUDIO
    TITLE "8:cjc058_2960"
    INDEX 01 02:53:63
  TRACK 97 AUDIO
    TITLE "0:"
    INDEX 01 02:56:67
  TRACK 98 AUDIO
    TITLE "9:cjc058_2961"
    INDEX 01 02:57:39
  TRACK 99 AUDIO
    TITLE "0:"
    INDEX 01 03:01:09
  TRACK 100 AUDIO
    TITLE "7:cjc058_2962"
    INDEX 01 03:02:17
  TRACK 101 AUDIO
    TITLE "0:"
    INDEX 01 03:04:51
  TRACK 102 AUDIO
    TITLE "8:cjc058_2963"
    INDEX 01 03:05:13
  TRACK 103 AUDIO
    TITLE "0:"
    INDEX 01 03:09:48
  TRACK 104 AUDIO
    TITLE "9:cjc058_2964"
    INDEX 01 03:10:18
  TRACK 105 AUDIO
    TITLE "0:"
    INDEX 01 03:13:42
  TRACK 106 AUDIO
    TITLE "7:cjc058_2965"
    INDEX 01 03:14:51
  TRACK 107 AUDIO
    TITLE "0:"
    INDEX 01 03:16:68
  TRACK 108 AUDIO
    TITLE "8:cjc058_2966"
    INDEX 01 03:17:26
  TRACK 109 AUDIO
    TITLE "0:"
    INDEX 01 03:19:27
  TRACK 110 AUDIO
    TITLE "9:cjc058_2967"
    INDEX 01 03:19:70
  TRACK 111 AUDIO
    TITLE "0:"
    INDEX 01 03:24:22
  TRACK 112 AUDIO
    TITLE "7:cjc058_2968"
    INDEX 01 03:25:30
  TRACK 113 AUDIO
    TITLE "0:"
    INDEX 01 03:27:56
  TRACK 114 AUDIO
    TITLE "8:cjc058_2969"
    INDEX 01 03:28:16
  TRACK 115 AUDIO
    TITLE "0:"
    INDEX 01 03:30:39
  TRACK 116 AUDIO
    TITLE "9:cjc058_2970"
    INDEX 01 03:31:11
  TRACK 117 AUDIO
    TITLE "0:"
    INDEX 01 03:35:01
